<svg width="40" height="31" viewBox="0 0 40 31" fill="none" xmlns="http://www.w3.org/2000/svg">
<path fill-rule="evenodd" clip-rule="evenodd" d="M19.5898 0.0750394C19.4824 0.11793 19.3116 0.229961 19.2103 0.324024C19.1089 0.418164 17.8521 2.84168 16.4172 5.70973C13.6835 11.1742 13.6498 11.2546 13.8971 11.7307C13.9458 11.8246 14.1852 12.0947 14.429 12.3311C15.0439 12.9271 15.2507 13.3815 15.2468 14.1279C15.2444 14.5825 15.2015 14.8014 15.0554 15.1045C14.5331 16.1882 13.3564 16.7002 12.1864 16.3528C11.6503 16.1936 10.9983 15.5983 10.7643 15.0545C10.5532 14.5636 10.5316 13.7825 10.7152 13.2782C10.8721 12.8475 10.8736 12.4671 10.7198 12.1694C10.609 11.9553 2.37636 5.28559 1.75558 4.90699C1.08746 4.49973 0.154566 4.90348 0.0123782 5.6616C-0.0262155 5.86691 0.476597 7.98754 2.16839 14.7552L4.37472 23.5811H19.9803H35.586L37.755 14.8896C38.9479 10.1094 39.9543 6.1648 39.9912 6.12402C40.0679 6.03934 40.085 5.4816 40.0085 5.55809C39.981 5.58559 39.9019 5.49551 39.8327 5.35785C39.5371 4.76996 38.7187 4.56355 38.1671 4.93785C37.3322 5.50441 29.3343 11.9889 29.2361 12.1789C29.0875 12.4663 29.09 12.8499 29.2434 13.2782C29.426 13.7879 29.405 14.5695 29.1957 15.0561C28.9625 15.5982 28.3096 16.1938 27.7743 16.3528C26.6051 16.7 25.4291 16.1886 24.9005 15.1032C24.7511 14.7967 24.7108 14.5893 24.7108 14.1279C24.7108 13.3811 24.9193 12.9246 25.5317 12.3311C25.7755 12.0947 26.0149 11.8246 26.0636 11.7307C26.3109 11.2546 26.2772 11.1742 23.5435 5.70973C22.1086 2.84168 20.8518 0.418321 20.7505 0.324571C20.4109 0.0100394 19.9833 -0.0818356 19.5898 0.0750394ZM3.4478e-05 5.88574C0.000893853 6.05762 0.0169095 6.11871 0.0355814 6.02152C0.0542532 5.92434 0.0535501 5.78371 0.0340189 5.70902C0.0144876 5.63434 -0.000824897 5.71387 3.4478e-05 5.88574ZM4.68246 27.8724C4.70933 30.0149 4.70871 30.0119 5.2448 30.4121L5.46058 30.5732H19.9803H34.5001L34.7159 30.4121C35.252 30.0119 35.2514 30.0149 35.2782 27.8724L35.3028 25.9248H19.9803H4.65793L4.68246 27.8724Z" fill="#FDD608"/>
</svg>
