<svg width="22" height="28" viewBox="0 0 22 28" fill="none" xmlns="http://www.w3.org/2000/svg">
<path fill-rule="evenodd" clip-rule="evenodd" d="M9.03812 0.172297C9.3978 1.00716 9.60752 1.84256 9.64624 2.59457C9.71017 3.83658 9.4334 4.6103 8.27342 6.43194C7.17098 8.16329 6.74584 9.05191 6.4392 10.2661C6.30199 10.8092 6.25387 11.1004 6.12798 12.1472C6.11261 12.275 6.08089 12.3796 6.05743 12.3796C5.98393 12.3796 5.13868 11.8553 4.68176 11.5264C4.44119 11.3531 4.02108 10.9806 3.7483 10.6986C3.28969 10.2246 3.24655 10.1933 3.17633 10.2847C3.1346 10.339 2.89381 10.6911 2.64126 11.0671C-0.411939 15.6126 -0.830407 19.9071 1.44995 23.2923C2.41245 24.7211 3.7512 25.8473 5.50574 26.7042C6.70143 27.2881 8.29705 27.7653 9.44269 27.8816L9.74348 27.9121L9.41535 27.8109C7.58348 27.2462 6.35416 25.9662 5.88855 24.1387C5.63032 23.1249 5.61162 21.8399 5.83616 20.528C5.90048 20.152 5.96364 19.8336 5.97655 19.8204C5.9894 19.8072 6.04141 19.8564 6.0921 19.9297C6.28285 20.2057 6.74228 20.6525 6.93817 20.7525C7.19564 20.8838 7.31552 20.8831 7.48554 20.7494C7.61045 20.6511 7.62417 20.5947 7.6578 20.0409C7.81399 17.4691 8.91616 15.3071 10.7516 13.9722C11.2355 13.6203 12.092 13.1513 12.1482 13.2075C12.1663 13.2256 12.1164 13.4331 12.0373 13.6686C11.6821 14.7266 11.8137 15.3886 12.63 16.6523C13.2599 17.6274 13.614 18.5241 13.6893 19.3347C13.7188 19.6509 13.7389 19.7078 13.8121 19.6805C14.0592 19.5881 14.5281 19.2582 14.8671 18.9381L15.2479 18.5787L15.4835 18.9107C16.5481 20.4111 17.1003 22.1452 16.9381 23.4791C16.7058 25.3892 15.4471 26.8637 13.3643 27.6654C12.9419 27.828 13.0171 27.8331 13.6888 27.6876C14.4205 27.5291 15.3794 27.19 16.0705 26.8454C20.119 24.8269 21.9149 20.4236 21.0896 14.5397C20.9663 13.6607 20.7712 12.6449 20.714 12.5844C20.6926 12.5618 20.5538 12.7094 20.4056 12.9126C20.0296 13.428 19.363 14.0836 19.0099 14.2853C18.5962 14.5216 18.316 14.5554 18.0079 14.4062C17.6449 14.2305 17.6131 14.1499 17.571 13.2982C17.3812 9.46173 16.2137 6.26279 14.0709 3.70856C12.8937 2.30527 11.2414 1.01706 9.68879 0.292063C8.89577 -0.0782261 8.93312 -0.0713355 9.03812 0.172297Z" fill="#FD8308"/>
</svg>
