<svg width="24" height="22" viewBox="0 0 24 22" fill="none" xmlns="http://www.w3.org/2000/svg">
<path fill-rule="evenodd" clip-rule="evenodd" d="M11.7644 0.032033C11.4019 0.147491 11.1985 0.480787 11.1978 0.960929C11.1963 1.94366 10.8548 3.67861 10.4222 4.90199C9.76241 6.76763 8.92316 7.69087 7.04526 8.61705L6.39952 8.93554V14.8415V20.7475L7.39925 21.0608C10.1244 21.9147 11.1159 22.0249 15.8103 21.996C18.7468 21.9779 18.8014 21.9757 19.1118 21.8608C19.789 21.6103 20.3124 21.1499 20.596 20.5554C20.8039 20.1193 20.8564 19.5144 20.7245 19.0729C20.6784 18.9187 20.6456 18.7897 20.6515 18.7861C20.6575 18.7825 20.8183 18.7085 21.0089 18.6215C21.871 18.2281 22.3961 17.4224 22.3947 16.4953C22.3943 16.2893 22.3608 16.0131 22.3201 15.8815L22.2461 15.6424L22.5886 15.496C23.8981 14.9363 24.4158 13.241 23.6278 12.093C23.5486 11.9776 23.4677 11.8574 23.4479 11.8258C23.4281 11.7941 23.479 11.6764 23.5609 11.5642C23.8812 11.1252 23.9682 10.8361 23.9682 10.2092C23.9682 9.67302 23.9569 9.6105 23.8023 9.29368C23.5077 8.68977 23.0346 8.27272 22.3605 8.02291C22.0537 7.90918 21.9939 7.90693 18.6362 7.88119C16.4025 7.86409 15.228 7.83699 15.2358 7.80272C15.2424 7.77395 15.3085 7.58991 15.3828 7.39378C15.6567 6.67074 15.9078 5.10821 15.9774 3.69331C16.0058 3.11859 15.9949 2.90718 15.9199 2.57656C15.6614 1.43642 14.8329 0.543669 13.6816 0.164441C13.3388 0.0515465 13.1347 0.021675 12.5891 0.00441119C12.22 -0.00730726 11.8489 0.00514336 11.7644 0.032033ZM0.454439 7.93136C0.395788 7.95532 0.27582 8.04954 0.187843 8.14078L0.0278859 8.30656L0.0139697 14.8862L0 21.4657L0.121674 21.6444C0.367155 22.0049 0.39904 22.0097 2.43674 21.994C4.18235 21.9805 4.26531 21.9754 4.40624 21.8721C4.48717 21.8127 4.60288 21.6992 4.66334 21.6198C4.77302 21.4756 4.77328 21.4588 4.77328 14.9529C4.77328 8.77279 4.76827 8.42144 4.67736 8.25817C4.62463 8.16338 4.50466 8.03986 4.41077 7.98373C4.2499 7.88747 4.13431 7.88177 2.40059 7.8847C1.38886 7.88643 0.51309 7.9074 0.454439 7.93136Z" fill="#2CC07B"/>
</svg>
