<svg width="40" height="40" viewBox="0 0 40 40" fill="none" xmlns="http://www.w3.org/2000/svg">
<path d="M23.6452 26.7495L23.0353 27.1637C18.7735 30.0579 13.1389 30.3696 8.48996 27.9685C7.324 27.3664 5.66178 26.1519 4.85311 25.3115C2.99381 23.379 1.52054 20.5935 0.961945 17.954C0.757175 16.9862 0.6775 14.1549 0.827853 13.1844C1.08173 11.5452 1.46405 10.2714 2.11305 8.90252C4.04541 4.82675 7.95349 1.78089 12.2428 1.00756C12.7794 0.910758 13.316 0.808536 13.4352 0.780243C13.7991 0.693847 17.0924 0.808536 17.5545 0.923549C17.793 0.982953 18.1428 1.05862 18.3319 1.09179C18.8557 1.1835 20.5104 1.78729 21.2401 2.15303C24.3365 3.7049 26.8501 6.36897 28.1712 9.49873C28.9984 11.4584 29.3107 13.0146 29.3132 15.1898C29.3166 18.0855 28.5751 20.6448 27.0391 23.0394L26.466 23.9329M23.6452 26.7495L24.4211 27.5304C25.1961 28.3108 26.1968 29.3118 26.1921 29.9051L26.1876 30.4987L29.6637 33.9162C32.5784 36.7925 34.2927 38.4056 34.5782 38.5402C36.0438 39.2317 37.6309 38.676 38.3996 37.202C38.8101 36.415 38.8123 35.3381 38.4047 34.6478C38.1442 34.2064 30.9598 27.124 30.3403 26.6962C30.2046 26.6025 29.8312 26.4987 29.5104 26.4657C28.9635 26.4092 27.8817 25.3595 27.1966 24.6691L26.466 23.9329M23.6452 26.7495L26.466 23.9329M26.1447 29.3861L27.6946 27.9154L29.232 26.4279M19.092 8.98382C19.0635 9.0584 19.0528 11.851 19.0683 15.1898L19.0965 21.2602H20.9393H22.3485L22.3765 15.0543L22.4045 8.84832H20.991C19.6132 8.84832 19.1307 8.88279 19.092 8.98382ZM13.2147 12.3418C13.1856 12.4179 13.1745 14.4556 13.19 16.8701L13.2184 21.2602H15.0612H16.4705V16.7616V12.263L15.086 12.2332C13.69 12.2104 13.2555 12.2356 13.2147 12.3418ZM7.33528 14.7304C7.30644 14.8055 7.29582 16.3056 7.31165 18.0637L7.34037 21.2602H9.12899H10.484L10.5126 17.9269L10.5413 14.5936H9.18135C7.83772 14.5936 7.37463 14.6278 7.33528 14.7304Z" stroke="#389EBA" stroke-width="1.5"/>
</svg>
