<svg width="65" height="84" viewBox="0 0 65 84" fill="none" xmlns="http://www.w3.org/2000/svg">
<path fill-rule="evenodd" clip-rule="evenodd" d="M29.8468 0.110302C25.9413 0.7314 22.5804 2.42579 19.8619 5.14444C17.5811 7.42504 15.9264 10.3468 15.1627 13.442C14.6851 15.3774 14.5976 19.1714 14.9893 20.9467C15.7766 24.5141 17.3968 27.5047 19.8715 29.9586C29.2746 39.2822 45.0537 35.3862 49.0353 22.7579C51.0036 16.515 49.3445 9.81525 44.6735 5.14444C42.4116 2.88238 39.4578 1.20122 36.4707 0.476021C34.7069 0.0478804 31.3911 -0.135346 29.8468 0.110302ZM23.9142 41.1788C13.659 42.1103 4.55865 49.3656 1.34172 59.1742C0.12486 62.8849 0.0905274 60.2349 0.00423834 70.1253C-0.045835 71.0906 0.325057 72.0226 1.07661 72.6306C4.62747 75.503 16.1504 83.6792 32.2679 83.6792C48.4951 83.6792 60.0648 75.3914 63.5304 72.5727C64.2348 71.9998 64.5798 71.1235 64.527 70.217C64.4592 62.9399 64.3876 63.9919 64.1444 62.7615C61.7426 50.6124 51.9769 41.9759 39.6838 41.1292C38.0559 41.017 37.7463 41.046 36.9888 41.3811C36.0988 41.7747 35.499 42.5179 35.2851 43.4913C35.2041 43.8601 36.0187 47.4213 37.9856 55.2955L40.8023 66.5714L36.535 70.8387L32.2677 75.106L28.0005 70.8387L23.7332 66.5714L26.5499 55.2955C28.5167 47.4213 29.3313 43.8601 29.2504 43.4913C29.046 42.5607 28.4348 41.7769 27.6281 41.4108C26.8732 41.068 25.8416 41.0036 23.9142 41.1788Z" fill="#122F3C"/>
</svg>
