<svg width="35" height="35" viewBox="0 0 35 35" fill="none" xmlns="http://www.w3.org/2000/svg">
<path fill-rule="evenodd" clip-rule="evenodd" d="M31.8359 0.0155396C27.6468 0.394368 22.2366 2.47734 17.8223 5.41101C15.1526 7.18531 13.1699 9.00773 11.3821 11.331L10.8594 12.0103L9.45311 12.0354C7.3067 12.0737 6.09061 12.4013 4.6603 13.3267C2.45616 14.7528 0.752407 17.5843 0.107641 20.8927C-0.073921 21.8245 -0.0400146 22.0479 0.318892 22.283C0.520064 22.4148 0.651313 22.4064 3.97467 22.0492C5.87061 21.8455 7.45944 21.6803 7.5053 21.6823C7.55444 21.6843 7.62311 22.0547 7.67202 22.5813C7.73928 23.3046 7.79342 23.5414 7.95366 23.8118C8.20327 24.2332 10.8457 26.855 11.2035 27.0362C11.3664 27.1187 11.8049 27.1998 12.3343 27.2453C12.8098 27.2862 13.2128 27.3334 13.2297 27.3502C13.2465 27.3671 13.0908 28.9436 12.8836 30.8536C12.4671 34.693 12.4661 34.6448 12.9651 34.8533C13.1999 34.9514 13.311 34.9512 13.8325 34.8514C16.6065 34.3206 19.0174 33.1303 20.599 31.5105C22.2238 29.8466 23.049 27.4735 22.9077 24.8705L22.8664 24.11L23.816 23.3727C27.0091 20.8934 29.6517 17.5356 31.8208 13.2013C33.6295 9.58726 34.7673 5.8096 34.9288 2.88179C34.9798 1.95609 34.8728 0.630774 34.7245 0.353743C34.6808 0.272102 34.4898 0.180227 34.2623 0.131477C33.823 0.0372581 32.3657 -0.032351 31.8359 0.0155396ZM22.4219 8.12945C22.3789 8.14335 22.1534 8.21343 21.9208 8.28531C20.4617 8.73609 19.3401 10.2529 19.3369 11.7795C19.3333 13.5194 20.5027 15.0326 22.1908 15.4723C24.1512 15.983 26.1936 14.7441 26.7194 12.7253C27.0542 11.4398 26.6372 10.0661 25.6248 9.11898C24.863 8.4064 24.0615 8.08929 23.0469 8.09906C22.7461 8.10195 22.4648 8.11562 22.4219 8.12945ZM5.3985 23.8415C4.69319 24.0121 3.96084 24.4109 3.41467 24.9218C2.21795 26.0412 1.5917 28.3851 1.24749 33.0334C1.20639 33.5891 1.21717 33.7169 1.30545 33.7169C2.2385 33.7169 5.05342 33.389 6.32866 33.1317C8.7942 32.6343 10.0426 31.8891 10.7166 30.5123C11.0112 29.9105 11.2394 29.0753 11.177 28.8269C11.111 28.564 10.8429 28.5105 10.5961 28.7112C9.76366 29.388 7.9385 29.6323 7.03124 29.1883C6.53506 28.9454 5.93327 28.3469 5.7353 27.8993C5.46553 27.2894 5.41022 26.7735 5.54467 26.1224C5.68334 25.4509 5.97084 24.6791 6.20452 24.3509C6.39944 24.0772 6.40545 24.0008 6.24444 23.8397C6.09897 23.6943 6.00616 23.6944 5.3985 23.8415Z" fill="#FDD608"/>
</svg>
