<svg width="41" height="42" viewBox="0 0 41 42" fill="none" xmlns="http://www.w3.org/2000/svg">
<path d="M14.4755 16.7004L14.906 15.7434C16.8408 11.4406 18.2967 9.24596 20.6896 7.02494C24.0576 3.89862 28.1981 1.91487 33.358 0.955426C35.0545 0.640004 35.4033 0.672841 35.4623 1.15374C35.4769 1.27226 35.5538 1.81001 35.6334 2.34881C35.8658 3.92522 35.7297 9.03646 35.4114 10.6748C34.7757 13.9479 33.8248 16.1277 31.8217 18.9037C31.1746 19.8003 28.2951 22.755 26.6665 24.1933L25.8999 24.8702M14.4755 16.7004L13.4132 16.6409C11.0485 16.5088 9.5583 17.3059 7.46489 19.8232C4.80854 23.0174 4.75 23.0952 4.75 23.4296C4.75 24.0241 4.84276 24.0386 7.80375 23.9101C10.6124 23.7883 11.8653 23.8393 11.7728 24.0717M14.4755 16.7004C14.5038 16.7282 13.9522 17.9677 13.7924 18.384C13.6326 18.8004 13.1865 20.029 12.8009 21.1143L11.7728 24.0717M11.7728 24.0717C11.7444 24.1433 11.4948 24.7216 11.2182 25.3569C10.9415 25.9923 10.742 26.5807 10.7748 26.6648C10.8076 26.7488 11.2026 27.0163 11.6525 27.2594C12.6161 27.7797 13.8713 28.6588 15.7418 30.1233L17.0978 31.185L18.4772 30.3007C19.2358 29.8143 19.9529 29.516 19.9529 29.516M19.9529 29.516C19.9529 29.516 21.9866 35.1464 21.9866 35.7807C21.9866 36.1845 22.1857 36.3833 22.59 36.3833C22.8724 36.3833 23.0416 36.1597 24.1721 34.2942C25.9554 31.3515 26.2591 30.7756 26.4855 29.9091C26.7786 28.7865 26.666 26.972 26.2286 25.7718L25.8999 24.8702M19.9529 29.516C19.9529 29.516 20.9115 28.6919 21.5284 28.2328C22.0108 27.874 22.9711 27.1516 23.6624 26.6277C24.3537 26.1038 25.8282 24.8707 25.8999 24.8702M24.62 4.09834C24.6236 4.13542 25.7927 4.86795 26.1856 5.11664C28.1366 6.35114 31.3034 8.7527 33.7532 10.8558C34.0888 11.1438 35.0629 12.0511 35.124 11.9895M12.1271 23.0528C12.1271 23.0528 12.878 23.2507 13.3462 23.4164C15.8587 24.3056 17.145 25.6203 18.9019 27.3359L20.4166 29.0552M14.9171 32.3817C15.2944 34.2563 14.0628 36.6892 12.0606 38.0245C11.23 38.5785 10.1186 39.1337 9.44112 39.333L6.6996 40.7496C6.6996 40.7496 6.42435 38.8987 6.30788 37.697C6.10655 35.6183 6.54787 33.3442 7.44514 31.8379C8.23994 30.5036 9.76107 29.4499 11.0435 29.3454M11.6525 31.8379C11.4207 32.0279 9.83181 33.9247 9.44112 35.1533C9.21836 35.854 9.09953 36.62 9.09953 36.62L12.1271 34.8502M23.9018 10.7113C22.769 11.0775 21.8858 11.8328 21.4075 12.8444C21.1573 13.3733 21.1002 13.6747 21.0951 14.4921C21.0897 15.3574 21.1342 15.5833 21.4248 16.165C21.84 16.9964 22.6307 17.6987 23.5251 18.0305C24.4179 18.3616 25.8613 18.3106 26.6299 17.9206C27.3592 17.5507 28.0646 16.8129 28.4284 16.0395C28.8194 15.2085 28.8558 13.9502 28.5171 12.9689C28.2484 12.1901 27.3893 11.2953 26.5633 10.9338C25.9514 10.6662 24.4339 10.5393 23.9018 10.7113Z" stroke="#389EBA" stroke-width="1.5"/>
<path d="M34.75 11.7496C37.2041 14.8889 37.75 16.9561 37.75 21.2496C37.75 31.4669 29.4673 39.7496 19.25 39.7496C16.7238 39.7496 14.3158 39.2433 12.1221 38.3266L12.1346 37.8522M25.25 4.24963C23.0563 3.3329 21.7762 2.74963 19.25 2.74963C9.03273 2.74963 0.75 11.0324 0.75 21.2496C0.75 26.2204 2.71044 30.7333 5.90032 34.0573H6.44231" stroke="#389EBA" stroke-width="1.5"/>
</svg>
