<svg width="39" height="39" viewBox="0 0 39 39" fill="none" xmlns="http://www.w3.org/2000/svg">
<path d="M27.4453 7.255L25.8744 6.38785C25.4011 6.14987 24.6887 5.84551 24.2915 5.71147C23.8941 5.57753 23.5164 5.43498 23.4519 5.39487C23.3873 5.35466 23.2985 4.99711 23.2543 4.6003C23.2101 4.20349 23.1617 3.78307 23.1466 3.66604C23.1315 3.54902 23.0817 3.0969 23.0359 2.66136C22.971 2.04487 22.8978 1.81477 22.7054 1.62243L22.4584 1.37541L19.5146 1.4037L16.5707 1.432L16.3746 1.69796C16.2413 1.8787 16.1098 2.44094 15.964 3.45328C15.6462 5.65998 15.744 5.44849 14.9335 5.68062C14.5464 5.79147 13.7824 6.10647 13.236 6.38051L12.2421 6.87892L10.9293 5.74509C8.70021 3.82009 8.82936 3.79934 6.09574 6.52179C4.09266 8.51668 4.04787 8.57083 4.04787 9.00285C4.04787 9.48604 4.30521 9.85987 5.76862 11.5022C6.16798 11.9504 6.49468 12.3707 6.49468 12.4362C6.49468 12.5016 6.34213 12.853 6.15575 13.217C5.96926 13.5809 5.6433 14.3336 5.43117 14.8894L5.04553 15.9001L3.45628 15.9784C1.42649 16.0784 1.23075 16.1155 0.967344 16.4503C0.760003 16.7139 0.75 16.8664 0.75 19.7524V22.7782L1.05107 23.0792C1.27798 23.3062 1.49404 23.3973 1.92873 23.4496C2.24585 23.4877 2.60106 23.5085 2.71809 23.4958C2.83511 23.4832 3.41244 23.4803 4.00117 23.4897L5.07149 23.5065L5.20702 24.065C5.2816 24.3721 5.605 25.1671 5.92564 25.8316C6.24638 26.496 6.48532 27.0944 6.4567 27.1614C6.42798 27.2283 5.8966 27.9054 5.27564 28.666C4.10319 30.1024 3.97617 30.334 4.09723 30.8163C4.16479 31.0853 7.68808 34.6723 8.27617 35.0706C8.69106 35.3517 9.15319 35.1676 10.1395 34.3284C10.6364 33.9056 11.2558 33.3806 11.5161 33.1618C11.7763 32.9428 12.018 32.735 12.0532 32.6997C12.0885 32.6644 12.5571 32.8557 13.0946 33.1248C13.632 33.3938 14.4135 33.7157 14.8311 33.84C15.2487 33.9643 15.6213 34.0957 15.6589 34.132C15.7326 34.203 15.7669 34.4578 15.9751 36.4782C16.0702 37.4016 16.1641 37.8556 16.293 38.0147C16.4717 38.2354 16.5454 38.2405 19.5264 38.2405H22.5769L22.8337 37.942C23.0211 37.7242 23.0904 37.5169 23.0904 37.1749C23.0904 36.6894 23.2767 34.683 23.3574 34.2982C23.3907 34.1392 23.5699 34.0267 24.0104 33.8878C24.3443 33.7826 25.0747 33.4622 25.6335 33.1759C26.1924 32.8897 26.6798 32.6554 26.7165 32.6554C26.7533 32.6554 27.4463 33.2074 28.2564 33.8822C29.741 35.1187 30.0202 35.2821 30.4574 35.1706C30.7612 35.0932 34.7408 31.1773 34.843 30.8555C35.0053 30.3442 34.796 29.9122 33.8046 28.7114C32.2783 26.8629 32.398 27.0729 32.6607 26.7037C32.9366 26.3164 33.5248 25.0339 33.7766 24.271C33.901 23.8938 34.0392 23.6775 34.1916 23.621C34.3173 23.5745 35.0967 23.5104 35.9235 23.4787C37.4153 23.4216 37.7912 23.3346 38.0604 22.9838C38.1552 22.8603 38.191 21.9912 38.1934 19.7483L38.1968 16.6816L37.8859 16.3706C37.5989 16.0838 37.5103 16.0584 36.7422 16.0435C36.2843 16.0346 35.8617 16.0162 35.8032 16.0025C35.7447 15.9889 35.3081 15.9723 34.833 15.9655L33.969 15.9533L33.6798 15.1288C33.5206 14.6754 33.1728 13.8625 32.9068 13.3226L32.4233 12.3409L32.6998 11.9929C33.5215 10.9582 33.969 10.35 33.969 10.35M26.2074 14.8894L26.9996 15.7065C27.8681 16.7858 28.2454 19.6974 27.7723 21.6703C27.3891 23.269 26.458 24.8337 25.1872 26.0145C23.4916 27.5901 21.6678 28.3058 19.3138 28.3197C18.0335 28.3272 17.0949 28.1167 15.9096 27.5562C11.8053 25.6151 9.9233 21.0826 11.449 16.8139C12.5085 13.8496 14.9387 11.8614 17.9638 11.484C18.3553 11.4352 19.0936 11.419 19.6046 11.4481C20.4986 11.4989 21.8327 11.9347 21.8327 11.9347L22.6649 12.3082M26.2074 14.8894C20.5599 20.7165 18.9336 22.3398 18.6002 22.5224C18.0984 22.7974 17.4079 22.8351 16.8837 22.616C16.4385 22.43 15.7801 21.6638 15.6438 21.173C15.3721 20.1951 15.556 19.8293 17.1982 18.0809C18.6439 16.5416 21.2364 13.8073 22.6649 12.3082M26.2074 14.8894C27.2437 13.8202 28.4154 12.6094 29.7394 11.24C30.9681 9.96913 32.4233 8.59546 32.4233 8.59546L34.9734 11.0955L35.6234 1.00964L26.2074 3.66604L28.8351 5.72434C28.8351 5.72434 28.5119 6.16477 28.117 6.56232C27.7221 6.95987 26.6358 8.09849 25.7032 9.09264C24.7706 10.0867 23.5496 11.3788 22.9899 11.9639C22.8515 12.1086 22.8362 12.1284 22.6649 12.3082" stroke="#389EBA" stroke-width="1.5"/>
</svg>
