<svg width="40" height="40" viewBox="0 0 40 40" fill="none" xmlns="http://www.w3.org/2000/svg">
<path fill-rule="evenodd" clip-rule="evenodd" d="M19.3502 0.148226C19.1903 0.232601 19.0159 0.380492 18.9627 0.47682C18.9093 0.573148 17.6265 3.28823 16.1118 6.51033C14.5972 9.73237 13.3301 12.3763 13.2962 12.3856C13.2623 12.395 10.4408 12.8279 7.02632 13.3477C0.200853 14.3867 0.415462 14.3371 0.141009 14.9414C-0.0326634 15.3238 -0.0446946 15.6076 0.098196 15.9496C0.187571 16.1635 4.27335 20.4215 8.28601 24.4825L9.29187 25.5006L8.23585 31.9731C7.65499 35.5329 7.17976 38.5764 7.17976 38.7364C7.17976 39.0628 7.41038 39.4542 7.75187 39.7073C7.90898 39.8237 8.0889 39.8707 8.37687 39.8707C8.80476 39.8707 9.11874 39.7046 18.0594 34.7474L19.9939 33.6749L25.5595 36.7531C28.6205 38.446 31.2366 39.8523 31.3729 39.8781C32.0822 40.0121 32.8048 39.4235 32.8048 38.7117C32.8048 38.5641 32.3293 35.5314 31.7481 31.9724L30.6915 25.5015L31.8139 24.3658C36.26 19.8673 39.7727 16.1996 39.9127 15.9099C40.0567 15.6118 40.1384 15.0502 40.0205 15.1681C39.993 15.1955 39.9019 15.0792 39.8179 14.9096C39.5368 14.3413 39.6142 14.3603 34.2463 13.5392C31.5413 13.1255 28.7204 12.6933 27.9775 12.5789L26.6267 12.3707L23.9095 6.58948C22.415 3.40979 21.1325 0.69432 21.0594 0.555101C20.7879 0.0378354 19.941 -0.163727 19.3502 0.148226ZM0.011946 15.4957C0.0128054 15.6676 0.028821 15.7287 0.0474929 15.6315C0.0661648 15.5343 0.0654616 15.3937 0.0459304 15.319C0.0263991 15.2443 0.0110866 15.3239 0.011946 15.4957Z" fill="#FDD608"/>
</svg>
