<svg width="151" height="34" viewBox="0 0 151 34" fill="none" xmlns="http://www.w3.org/2000/svg">
<path d="M0.837852 33.0663C0.604879 32.9951 0.277795 32.6958 0.134399 32.4203C0.0460783 32.2486 0 32.0583 0 31.8652V16.6022V1.38118C0 1.16043 0.0521987 0.942817 0.152328 0.7461C0.309154 0.437339 0.49734 0.25208 0.806494 0.0905744C0.981216 0.00032084 1.16493 0.000321121 8.55771 0.000321121C17.0078 0.000321121 16.3582 -0.0234294 17.9084 0.337583C20.2024 0.874354 22.5412 2.15215 23.9841 3.65796C24.423 4.12349 24.4366 4.09024 23.4105 5.17802L22.7069 5.92396C22.6269 6.0087 22.4942 6.01492 22.4069 5.93806C21.4614 5.07827 20.9059 4.6365 20.2965 4.27072C20.2114 4.2206 20.0443 4.12438 19.9497 4.06516C19.9032 4.03607 19.8996 4.02797 19.949 4.05172C19.98 4.06658 19.9614 4.06446 19.9295 4.05186C19.8799 4.0324 19.8057 3.99481 19.732 3.95246C19.49 3.81945 18.9389 3.57246 18.6388 3.46794C18.5178 3.42046 18.3744 3.36819 18.3251 3.34919C18.1593 3.2827 17.7109 3.15758 17.6771 3.15167C17.6432 3.14576 17.5829 3.12082 17.5337 3.10892C17.4845 3.09701 17.1512 3.00244 16.6898 2.91693C16.6144 2.90415 16.5127 2.88277 16.4241 2.86146C16.3471 2.84292 15.9989 2.80237 15.92 2.79491C15.2384 2.73047 14.5315 2.77628 13.8469 2.78538C12.8316 2.79888 11.1838 2.81456 8.88926 2.81718C4.75302 2.81718 2.64514 4.92958 2.63691 9.0668C2.6247 15.1829 2.62685 23.8234 2.65245 25.3616C2.66549 26.1197 3.59338 26.4779 4.11225 25.9251L4.52974 25.4803C5.53785 24.3973 7.18219 22.6445 8.17237 21.5804C9.16705 20.5164 10.0452 19.6138 10.1259 19.5758C10.323 19.4761 10.4977 19.4808 10.6725 19.5948C10.8069 19.6803 10.8696 19.7896 11.0668 20.2836C11.6716 21.8084 12.0883 22.4592 12.8455 23.0625C13.6072 23.6705 14.3151 23.946 15.256 23.9935C15.9191 24.0315 16.3044 23.9745 16.9048 23.7655C17.8726 23.4235 18.5446 22.7015 18.7732 21.7562C18.8628 21.3809 18.8628 20.6351 18.7687 20.3026C18.6567 19.8941 18.4371 19.5046 18.1459 19.1958C17.5724 18.583 17.0213 18.336 13.9567 17.3147C13.5802 17.1879 13.2342 17.0699 13.0834 17.0113C13.0315 16.9911 12.9739 16.963 12.9212 16.9451C12.8904 16.9345 12.8651 16.9343 12.8342 16.924C12.6149 16.8511 11.854 16.4239 11.5596 16.1985C10.1079 15.1012 9.39553 13.5431 9.48964 11.662C9.57925 9.95669 10.3992 8.42717 11.7568 7.44386C12.4333 6.94985 13.1636 6.61733 13.9791 6.43207C14.6019 6.2943 15.8474 6.28007 16.4657 6.40832C17.653 6.65534 18.7597 7.22059 19.7633 8.10887C20.189 8.48414 21.3494 9.71443 21.7572 10.2275C21.8849 10.3855 22.1231 10.394 22.2617 10.2454L23.2312 9.20619C23.9077 8.47941 25.3013 6.9831 26.3317 5.87629C26.8146 5.36 27.2559 4.88435 27.589 4.52215C28.0045 4.07018 27.9793 3.62057 27.5057 3.23045C27.1203 2.91693 26.7799 2.60342 26.7438 2.53217C26.6049 2.25191 26.7124 1.92889 26.9814 1.81964C27.0756 1.77689 27.3532 1.68664 27.5996 1.61539C27.846 1.54413 28.46 1.36362 28.9661 1.21162C31.5469 0.437339 32.4969 0.166578 32.6223 0.166578C32.8148 0.166578 33.0784 0.546191 33.0784 0.717196C33.0784 0.793199 33.0212 0.641596 33.0523 0.651099C33.0884 0.665349 33.0884 0.750852 33.048 1.00261C32.9971 1.30065 32.955 1.5425 32.9203 1.7353C32.8439 2.15966 32.6901 2.58114 32.6716 3.01194C32.6696 3.04615 32.6666 3.07844 32.663 3.1081C32.6468 3.23838 32.5776 3.4822 32.5776 3.4822C32.5776 3.4822 32.5819 3.68171 32.5101 3.77198C32.4609 3.83371 32.4906 3.53673 32.488 3.69012C32.4857 3.84348 33.0784 0.717196 33.0784 0.717196C33.0784 0.717196 32.2819 5.43928 32.2369 5.70053C32.1923 5.96181 32.1294 6.32755 32.098 6.50807C31.9905 7.13033 31.8697 7.29186 31.5022 7.29186C31.3094 7.29186 31.2961 7.28237 30.9061 6.8311C30.6911 6.57458 30.4 6.24206 30.2654 6.09006C30.1334 5.94226 29.9025 5.94024 29.7679 6.08572L29.28 6.61259C27.2053 8.85468 22.9553 13.3726 22.8925 13.3963C22.8521 13.4106 22.9623 13.2771 22.9401 13.3341C22.913 13.3959 22.7741 13.5051 22.6308 13.5858C22.3933 13.7141 22.3216 13.7284 21.9587 13.7284C21.3046 13.7284 21.2464 13.6809 19.5035 11.7238C17.9443 9.97095 17.3663 9.54821 16.0356 9.16817C15.6592 9.05892 15.5338 9.04466 15.1888 9.06369C14.1 9.13019 13.1098 9.64796 12.6439 10.389C12.3034 10.94 12.1734 11.7048 12.3213 12.2843C12.5811 13.2866 13.186 13.8186 14.6959 14.3696C15.4218 14.6356 15.5204 14.6689 16.0625 14.8399C17.9353 15.4432 18.8404 15.8279 19.5348 16.3315C20.8656 17.2862 21.6138 18.7445 21.6944 20.5544C21.7885 22.6919 20.8879 24.5255 19.1764 25.6656C18.818 25.9031 18.128 26.2261 17.7919 26.3163C17.6217 26.3591 17.429 26.4161 17.3663 26.4399C17.3036 26.4683 17.0527 26.5301 16.8018 26.5824C16.4075 26.6679 16.2327 26.6774 15.368 26.6536C14.2837 26.6298 13.8312 26.5586 13.0606 26.2879C12.5498 26.1121 11.7971 25.7226 11.3266 25.3853C10.9861 25.1431 10.2155 24.3688 9.93319 23.9888C9.86098 23.89 9.71682 23.881 9.63293 23.9701L6.72071 27.0621C5.03158 28.8529 3.6516 30.3302 3.6516 30.3397C3.6516 30.3873 16.1431 30.3255 16.5105 30.278C17.774 30.1165 18.7552 29.841 19.9874 29.309C21.0492 28.8529 21.905 28.3209 22.8191 27.5514C24.0645 26.5016 24.8709 25.5421 25.7581 24.06C26.2242 23.2762 26.7978 21.9842 26.9546 21.3761C26.9724 21.3001 27.0442 21.0294 27.1067 20.7824C27.5864 18.9251 27.676 16.5072 27.331 14.6072C27.2457 14.1274 27.0889 13.4386 27.0217 13.2343C26.9903 13.1393 26.9142 12.9113 26.8603 12.7213L26.8143 12.5763C26.7756 12.4557 26.7981 12.3239 26.8738 12.2225C26.9367 12.137 27.331 11.6953 27.7432 11.244C28.415 10.5125 28.5093 10.427 28.6436 10.427C28.7378 10.427 28.8275 10.465 28.89 10.5315C28.9932 10.6407 29.3111 11.4578 29.5264 12.1608C29.7729 12.9731 30.1625 15.2049 30.1086 15.3522C30.0954 15.3902 30.0729 15.0679 30.1086 15.2389C30.14 15.4099 30.1715 15.6712 30.1715 15.8279C30.1761 15.9799 30.1804 16.1985 30.185 16.3172C30.185 16.4359 30.1761 17.025 30.1579 17.6235C30.14 18.2268 30.0851 18.8163 30.0851 18.9256C30.0941 19.4196 29.7414 21.3999 29.5039 22.0649C29.45 22.2074 29.3875 22.3927 29.3604 22.4687C29.3382 22.5494 29.2889 22.6824 29.2529 22.7632C29.2171 22.8487 29.1589 23.0102 29.1186 23.1195C29.1034 23.1657 29.0842 23.2146 29.0647 23.2587C29.0236 23.3517 28.9873 23.4422 28.9416 23.5329C28.9181 23.5795 28.8983 23.6342 28.8831 23.684C28.7772 24.0286 28.412 24.7954 28.0432 25.4281C27.1471 26.9671 25.7895 28.5869 24.4498 29.7127C23.4148 30.5868 21.8781 31.5321 20.7894 31.9643C20.5429 32.0641 20.31 32.1638 20.2741 32.1828C20.18 32.2303 19.3646 32.5011 19.0599 32.5818C18.6388 32.6958 18.1459 32.7861 16.8914 32.9666C16.6225 33.0093 16.9407 32.9524 16.8914 32.9666C16.7525 33.0141 0.994679 33.1138 0.837852 33.0663Z" fill="white"/>
<path d="M40.5527 23.9822V9.38758H47.2017C48.7907 9.38758 50.1916 9.69315 51.4043 10.305C52.617 10.9024 53.5649 11.7436 54.2479 12.8278C54.9309 13.9119 55.2724 15.1974 55.2724 16.6849C55.2724 18.1581 54.9309 19.4442 54.2479 20.5421C53.5649 21.6262 52.617 22.4739 51.4043 23.0857C50.1916 23.6832 48.7907 23.9822 47.2017 23.9822H40.5527ZM43.9399 21.2092H47.0344C48.0102 21.2092 48.8534 21.0288 49.5643 20.6672C50.2892 20.2919 50.8467 19.7635 51.237 19.0826C51.6413 18.4017 51.8434 17.6023 51.8434 16.6849C51.8434 15.7538 51.6413 14.9544 51.237 14.2872C50.8467 13.6063 50.2892 13.0851 49.5643 12.7235C48.8534 12.3482 48.0102 12.1606 47.0344 12.1606H43.9399V21.2092ZM63.1794 24.149C61.8971 24.149 60.768 23.8988 59.7922 23.3984C58.8304 22.8981 58.0847 22.2172 57.555 21.3552C57.0254 20.4795 56.7605 19.4859 56.7605 18.3737C56.7605 17.2478 57.0184 16.2542 57.5341 15.3922C58.0638 14.5166 58.7817 13.8357 59.6877 13.349C60.5937 12.8486 61.6183 12.5984 62.7612 12.5984C63.8625 12.5984 64.8521 12.8349 65.7303 13.3073C66.6224 13.766 67.3263 14.4332 67.842 15.3088C68.3578 16.1708 68.6157 17.2061 68.6157 18.4154C68.6157 18.5405 68.6087 18.6865 68.5947 18.8533C68.5808 19.0064 68.5669 19.1523 68.5529 19.2911H59.4159V17.3938H66.8384L65.5839 17.9567C65.5839 17.3729 65.4654 16.8654 65.2285 16.4347C64.9915 16.004 64.6639 15.6704 64.2458 15.4339C63.8276 15.1837 63.3398 15.0586 62.7822 15.0586C62.2246 15.0586 61.7298 15.1837 61.2976 15.4339C60.8795 15.6704 60.5519 16.0106 60.3149 16.4556C60.078 16.8862 59.9595 17.401 59.9595 17.9984V18.4988C59.9595 19.1106 60.0919 19.6527 60.3568 20.1251C60.6356 20.5838 61.0189 20.9382 61.5067 21.1884C62.0085 21.4249 62.594 21.5428 63.2631 21.5428C63.8625 21.5428 64.3852 21.4523 64.8312 21.2718C65.2912 21.0913 65.7094 20.8203 66.0857 20.4587L67.8211 22.3351C67.3054 22.9189 66.6572 23.3704 65.8766 23.6903C65.0961 23.9959 64.197 24.149 63.1794 24.149ZM76.3698 24.149C75.0875 24.149 73.9584 23.8988 72.9826 23.3984C72.0208 22.8981 71.2751 22.2172 70.7454 21.3552C70.2157 20.4795 69.9509 19.4859 69.9509 18.3737C69.9509 17.2478 70.2088 16.2542 70.7245 15.3922C71.2542 14.5166 71.9721 13.8357 72.8781 13.349C73.7841 12.8486 74.8087 12.5984 75.9516 12.5984C77.0529 12.5984 78.0425 12.8349 78.9207 13.3073C79.8128 13.766 80.5167 14.4332 81.0324 15.3088C81.5482 16.1708 81.806 17.2061 81.806 18.4154C81.806 18.5405 81.7991 18.6865 81.7851 18.8533C81.7712 19.0064 81.7573 19.1523 81.7433 19.2911H72.6063V17.3938H80.0288L78.7743 17.9567C78.7743 17.3729 78.6558 16.8654 78.4188 16.4347C78.1819 16.004 77.8543 15.6704 77.4361 15.4339C77.018 15.1837 76.5301 15.0586 75.9725 15.0586C75.415 15.0586 74.9202 15.1837 74.488 15.4339C74.0699 15.6704 73.7423 16.0106 73.5053 16.4556C73.2684 16.8862 73.1499 17.401 73.1499 17.9984V18.4988C73.1499 19.1106 73.2823 19.6527 73.5471 20.1251C73.8259 20.5838 74.2093 20.9382 74.6971 21.1884C75.1989 21.4249 75.7844 21.5428 76.4534 21.5428C77.0529 21.5428 77.5756 21.4523 78.0216 21.2718C78.4816 21.0913 78.8997 20.8203 79.2761 20.4587L81.0115 22.3351C80.4958 22.9189 79.8476 23.3704 79.067 23.6903C78.2865 23.9959 77.3874 24.149 76.3698 24.149ZM90.6265 24.149C89.6787 24.149 88.8493 23.9405 88.1384 23.5235C87.4275 23.1065 86.87 22.4739 86.4657 21.6262C86.0754 20.7642 85.8803 19.6801 85.8803 18.3737C85.8803 17.053 86.0685 15.9689 86.4448 15.1212C86.8212 14.2735 87.3648 13.6409 88.0757 13.2239C88.7866 12.8069 89.6369 12.5984 90.6265 12.5984C91.6859 12.5984 92.6338 12.8414 93.4701 13.3281C94.3204 13.8005 94.9895 14.4677 95.4773 15.3297C95.9791 16.1917 96.23 17.2061 96.23 18.3737C96.23 19.555 95.9791 20.5766 95.4773 21.4386C94.9895 22.3006 94.3204 22.9678 93.4701 23.4401C92.6338 23.9125 91.6859 24.149 90.6265 24.149ZM83.9776 28.027V12.7652H87.093V15.0586L87.0302 18.3946L87.2393 21.7096V28.027H83.9776ZM90.062 21.4803C90.6056 21.4803 91.0865 21.3552 91.5047 21.105C91.9368 20.8548 92.2783 20.5004 92.5292 20.0417C92.7941 19.5693 92.9265 19.0129 92.9265 18.3737C92.9265 17.7202 92.7941 17.1644 92.5292 16.7057C92.2783 16.2471 91.9368 15.8926 91.5047 15.6424C91.0865 15.3922 90.6056 15.2671 90.062 15.2671C89.5184 15.2671 89.0305 15.3922 88.5984 15.6424C88.1663 15.8926 87.8248 16.2471 87.5739 16.7057C87.323 17.1644 87.1975 17.7202 87.1975 18.3737C87.1975 19.0129 87.323 19.5693 87.5739 20.0417C87.8248 20.5004 88.1663 20.8548 88.5984 21.105C89.0305 21.3552 89.5184 21.4803 90.062 21.4803ZM102.198 24.149C101.236 24.149 100.309 24.0376 99.4172 23.8154C98.539 23.5789 97.842 23.287 97.3263 22.9398L98.4135 20.6046C98.9293 20.9245 99.5356 21.1884 100.233 21.3969C100.943 21.5917 101.64 21.6888 102.323 21.6888C103.076 21.6888 103.606 21.5982 103.913 21.4177C104.233 21.2373 104.393 20.9871 104.393 20.6672C104.393 20.4033 104.268 20.2085 104.017 20.0834C103.78 19.9446 103.459 19.8403 103.055 19.7706C102.651 19.7009 102.205 19.6319 101.717 19.5621C101.243 19.4924 100.762 19.4025 100.274 19.2911C99.7865 19.166 99.3404 18.9855 98.9363 18.749C98.532 18.5125 98.2045 18.1932 97.9536 17.7899C97.7166 17.3866 97.5981 16.8654 97.5981 16.2262C97.5981 15.5173 97.8002 14.8918 98.2045 14.3498C98.6226 13.8077 99.222 13.3835 100.003 13.0779C100.783 12.758 101.717 12.5984 102.804 12.5984C103.571 12.5984 104.352 12.6818 105.146 12.8486C105.941 13.0154 106.603 13.2584 107.132 13.5783L106.045 15.8926C105.502 15.5727 104.951 15.3577 104.393 15.2463C103.85 15.1212 103.32 15.0586 102.804 15.0586C102.079 15.0586 101.55 15.1557 101.215 15.3505C100.881 15.5453 100.713 15.7955 100.713 16.1011C100.713 16.3793 100.832 16.5878 101.069 16.7266C101.32 16.8654 101.647 16.9768 102.052 17.0602C102.456 17.1436 102.895 17.2198 103.369 17.2895C103.857 17.3449 104.345 17.4355 104.832 17.5606C105.32 17.6857 105.759 17.8662 106.15 18.1027C106.554 18.3248 106.882 18.6376 107.132 19.0409C107.383 19.4299 107.509 19.9446 107.509 20.5838C107.509 21.279 107.3 21.8973 106.882 22.4394C106.463 22.9678 105.857 23.3848 105.062 23.6903C104.282 23.9959 103.327 24.149 102.198 24.149ZM116.421 23.9822V21.793L116.212 21.3135V17.3938C116.212 16.6986 115.996 16.1565 115.564 15.7675C115.146 15.3786 114.498 15.1837 113.619 15.1837C113.02 15.1837 112.428 15.2808 111.842 15.4756C111.27 15.6561 110.783 15.9063 110.379 16.2262L109.208 13.9536C109.821 13.5229 110.56 13.1894 111.424 12.9528C112.288 12.7163 113.167 12.5984 114.058 12.5984C115.773 12.5984 117.104 13.0017 118.052 13.8077C119 14.6136 119.474 15.8718 119.474 17.5814V23.9822H116.421ZM112.992 24.149C112.114 24.149 111.361 24.0031 110.734 23.7112C110.107 23.4056 109.626 22.9951 109.291 22.4811C108.957 21.967 108.789 21.3897 108.789 20.7506C108.789 20.0834 108.95 19.4996 109.27 18.9992C109.605 18.4988 110.128 18.1098 110.839 17.8316C111.549 17.5397 112.477 17.3938 113.619 17.3938H116.609V19.2911H113.975C113.208 19.2911 112.678 19.4162 112.386 19.6664C112.107 19.9166 111.968 20.2293 111.968 20.6046C111.968 21.0216 112.128 21.3552 112.449 21.6054C112.783 21.8419 113.236 21.9598 113.808 21.9598C114.351 21.9598 114.839 21.8347 115.271 21.5845C115.703 21.3207 116.017 20.9382 116.212 20.4378L116.714 21.939C116.477 22.6615 116.045 23.2108 115.418 23.5861C114.79 23.9614 113.982 24.149 112.992 24.149ZM122.426 23.9822V8.5119H125.688V23.9822H122.426ZM134.297 24.149C133.015 24.149 131.886 23.8988 130.91 23.3984C129.948 22.8981 129.203 22.2172 128.673 21.3552C128.143 20.4795 127.878 19.4859 127.878 18.3737C127.878 17.2478 128.136 16.2542 128.652 15.3922C129.182 14.5166 129.899 13.8357 130.806 13.349C131.712 12.8486 132.736 12.5984 133.879 12.5984C134.98 12.5984 135.97 12.8349 136.848 13.3073C137.74 13.766 138.444 14.4332 138.96 15.3088C139.475 16.1708 139.734 17.2061 139.734 18.4154C139.734 18.5405 139.726 18.6865 139.713 18.8533C139.699 19.0064 139.685 19.1523 139.671 19.2911H130.534V17.3938H137.956L136.702 17.9567C136.702 17.3729 136.584 16.8654 136.346 16.4347C136.109 16.004 135.782 15.6704 135.364 15.4339C134.946 15.1837 134.457 15.0586 133.9 15.0586C133.343 15.0586 132.847 15.1837 132.416 15.4339C131.997 15.6704 131.67 16.0106 131.433 16.4556C131.196 16.8862 131.077 17.401 131.077 17.9984V18.4988C131.077 19.1106 131.21 19.6527 131.475 20.1251C131.754 20.5838 132.137 20.9382 132.625 21.1884C133.126 21.4249 133.712 21.5428 134.381 21.5428C134.98 21.5428 135.503 21.4523 135.949 21.2718C136.409 21.0913 136.827 20.8203 137.204 20.4587L138.939 22.3351C138.424 22.9189 137.775 23.3704 136.995 23.6903C136.214 23.9959 135.315 24.149 134.297 24.149ZM145.689 24.149C144.727 24.149 143.801 24.0376 142.908 23.8154C142.03 23.5789 141.334 23.287 140.818 22.9398L141.905 20.6046C142.421 20.9245 143.027 21.1884 143.724 21.3969C144.435 21.5917 145.132 21.6888 145.815 21.6888C146.567 21.6888 147.097 21.5982 147.404 21.4177C147.725 21.2373 147.885 20.9871 147.885 20.6672C147.885 20.4033 147.759 20.2085 147.508 20.0834C147.272 19.9446 146.951 19.8403 146.547 19.7706C146.143 19.7009 145.696 19.6319 145.208 19.5621C144.735 19.4924 144.254 19.4025 143.766 19.2911C143.278 19.166 142.832 18.9855 142.428 18.749C142.024 18.5125 141.696 18.1932 141.445 17.7899C141.208 17.3866 141.089 16.8654 141.089 16.2262C141.089 15.5173 141.292 14.8918 141.696 14.3498C142.114 13.8077 142.714 13.3835 143.494 13.0779C144.275 12.758 145.208 12.5984 146.296 12.5984C147.063 12.5984 147.843 12.6818 148.637 12.8486C149.432 13.0154 150.094 13.2584 150.624 13.5783L149.536 15.8926C148.993 15.5727 148.443 15.3577 147.885 15.2463C147.341 15.1212 146.812 15.0586 146.296 15.0586C145.571 15.0586 145.041 15.1557 144.707 15.3505C144.372 15.5453 144.205 15.7955 144.205 16.1011C144.205 16.3793 144.324 16.5878 144.56 16.7266C144.811 16.8654 145.139 16.9768 145.543 17.0602C145.947 17.1436 146.386 17.2198 146.86 17.2895C147.348 17.3449 147.836 17.4355 148.324 17.5606C148.812 17.6857 149.251 17.8662 149.641 18.1027C150.045 18.3248 150.373 18.6376 150.624 19.0409C150.875 19.4299 151 19.9446 151 20.5838C151 21.279 150.791 21.8973 150.373 22.4394C149.955 22.9678 149.348 23.3848 148.554 23.6903C147.774 23.9959 146.818 24.149 145.689 24.149Z" fill="white"/>
</svg>
